<?xml version="1.0" encoding="utf-8"?>
<!-- Svg Vector Icons : http://www.onlinewebfonts.com/icon -->
<!DOCTYPE svg PUBLIC "-//W3C//DTD SVG 1.1//EN" "http://www.w3.org/Graphics/SVG/1.1/DTD/svg11.dtd">
<svg version="1.1" xmlns="http://www.w3.org/2000/svg" xmlns:xlink="http://www.w3.org/1999/xlink" fill="white" x="0px" y="0px" viewBox="0 0 50 50" enable-background="new 0 0 50 50" xml:space="preserve">
<metadata> Svg Vector Icons : http://www.onlinewebfonts.com/icon </metadata>
<g><g transform="translate(0.000000,512.000000) scale(0.100000,-0.100000)"><path d="M1072.7,4983.6c-336.8-107.2-612.3-390.3-719.5-738.6c-32.5-109.1-34.4-292.8-34.4-4133.2v-4018.4l51.7-139.7c67-185.6,145.4-304.2,294.7-443.9c135.9-126.3,292.8-214.3,461.2-258.3c162.7-42.1,3941.8-42.1,4100.6,0c377,99.5,706.1,442,782.6,809.4c13.4,67,21.1,514.7,21.1,1322.2V-1396l430.5,348.3l428.6,346.3h277.5c790.3,0,1238,158.8,1714.5,606.6c528.1,495.6,845.8,1289.7,794.1,1986.2c-45.9,642.9-310,1230.4-746.3,1664.7c-281.3,281.3-585.5,465-956.7,577.9l-172.2,51.7l-895.5,11.5l-895.5,9.6l-32.5,95.7c-101.4,298.5-367.4,564.5-671.7,671.6L5179,5020l-1999.6-1.9C1308,5018.1,1172.2,5016.2,1072.7,4983.6z M5226.9,4585.6c116.7-38.3,271.7-168.4,325.3-275.5c21-40.2,38.3-80.4,38.3-89.9s-109.1-23-243-28.7c-365.5-15.3-652.5-103.3-983.5-302.3l-156.9-93.8H2467.6H730.2v158.8c0,334.9,126.3,537.7,392.3,629.6c88,30.6,244.9,32.5,2049.4,34.4C4953.3,4618.2,5135,4616.2,5226.9,4585.6z M7733.6,3774.3c748.2-118.6,1354.8-767.3,1504-1605.4c42.1-243,38.3-639.1-11.5-878.3C9097.9,655.3,8726.7,150.1,8198.5-115.8c-267.9-134-357.8-149.2-924.2-162.6c-279.4-5.7-520.5-19.1-535.8-28.7c-28.7-19.1-765.4-610.4-1245.7-1000.8c-145.4-118.6-269.8-216.2-275.6-216.2c-5.7,0-9.6,275.5-9.6,610.4c0,606.6,0,612.3-42.1,662.1c-28.7,32.5-84.2,59.3-158.8,78.4c-63.1,17.2-178,59.3-252.6,93.8c-585.5,269.8-1037.1,889.8-1134.7,1557.6c-36.4,243-15.3,635.3,45.9,872.6c89.9,350.2,365.5,815.2,574,975.9c32.5,24.9,97.6,76.5,145.4,112.9c208.6,162.7,470.7,279.4,736.7,327.2C5293.9,3799.2,7544.1,3804.9,7733.6,3774.3z M3751.6,3357.2c-392.3-532-553-979.7-556.8-1542.3c-1.9-373.1,67-690.8,222-1031.4C3677,217.1,4197.4-303.4,4694.9-492.8l109.1-42.1l5.7-753.9l5.7-755.8l63.1-55.5c45.9-40.2,80.4-55.5,135.9-55.5c65.1,0,103.3,24.9,336.8,210.5c145.4,116.7,266,210.5,269.8,210.5c3.8,0,7.7-134,7.7-296.6v-296.6H3179.4H730.2V532.8v2860.7h1523.1C3738.2,3393.5,3776.5,3393.5,3751.6,3357.2z M5624.9-3317.1c-9.6-686.9-15.3-715.6-178-880.2c-82.3-80.4-124.4-105.3-231.5-139.7c-130.1-38.3-151.2-38.3-2083.8-34.4l-1951.8,5.7l-105.2,49.7c-126.3,59.3-229.6,160.7-290.9,283.2c-42.1,86.1-44,105.2-49.7,696.5l-5.7,606.6h2451.2h2451.2L5624.9-3317.1z"/><path d="M6376.9,3206c-47.9-47.8-59.3-74.6-59.3-141.6c1.9-139.7,82.3-206.7,252.6-206.7c302.3,0,606.6-177.9,748.2-436.3c59.3-111,109.1-302.3,109.1-430.5c0-160.7,70.8-241.1,206.7-243c67,0,93.8,11.5,141.6,59.3c59.3,57.4,59.3,57.4,49.7,233.4c-17.2,321.5-135.9,574-388.4,826.6c-252.6,252.6-505.2,371.2-826.7,388.4C6434.3,3265.3,6434.3,3265.3,6376.9,3206z"/><path d="M5240.3,2970.6c-132-70.8-352.1-296.6-419.1-436.3c-59.3-118.6-63.1-137.8-63.1-336.8c0-185.6,5.7-223.9,51.7-327.2c139.7-317.6,336.8-579.8,721.4-964.4c329.1-327.2,553-497.5,815.1-623.8c292.8-137.8,522.4-156.9,729-55.5c112.9,55.5,394.2,308.1,440.1,394.2c32.5,65.1,34.5,202.8,1.9,260.2c-45.9,82.3-614.2,660.2-685,696.5c-141.6,72.7-269.8,40.2-384.6-97.6l-65-78.5l-200.9,210.5l-200.9,212.4l65,61.2c135.9,133.9,179.9,283.2,111,388.4c-61.2,91.8-597,618.1-688.9,677.4C5357,3020.4,5337.9,3022.3,5240.3,2970.6z M5659.3,2071.3c-61.2-65.1-68.9-86.1-68.9-177.9c0-248.8,302.3-639.1,631.5-813.2c185.6-99.5,323.4-95.7,421,7.6c24.9,26.8,55.5,47.8,68.9,47.8c11.5,0,101.4-86.1,199-191.4L7088.7,751l-45.9-47.8c-193.3-208.6-424.8-185.6-773.1,74.6c-170.3,126.3-564.5,509-732.9,708c-267.9,319.6-386.5,543.4-386.5,725.2c1.9,112.9,17.2,147.3,114.8,260.2l67,76.5l197.1-199l197.1-200.9L5659.3,2071.3z"/><path d="M6287,2742.9c-89.9-36.4-135.9-191.4-84.2-288.9c28.7-51.7,120.6-93.8,206.7-93.8c197.1,0,394.2-118.6,466.9-283.2c19.1-44,44-147.3,53.6-227.7c13.4-126.3,23-155,67-191.4c53.6-47.8,174.1-59.3,241.1-24.9c128.2,68.9,120.6,363.6-17.2,620c-65.1,124.4-273.6,332.9-398,398C6648.6,2744.9,6396,2786.9,6287,2742.9z"/><path d="M2955.6-3074.1c-191.4-95.7-308.1-260.2-325.3-461.1c-13.4-130.1,44-271.7,155-396.1c260.2-287,700.3-210.5,884,153.1c162.7,319.6-93.8,731-466.9,755.8C3087.6-3014.8,3062.7-3020.5,2955.6-3074.1z M3278.9-3451.1c44-40.2,47.8-181.8,3.8-223.9c-47.8-47.8-189.4-40.2-225.8,11.5c-42.1,59.3-38.3,160.7,7.7,206.7C3112.5-3409,3229.2-3405.1,3278.9-3451.1z"/></g></g>
</svg>
